<svg xmlns="http://www.w3.org/2000/svg" viewBox="0 0 34.134 45.512">
  <defs>
    <style>
      .cls-1 {
        fill: #fff;
      }
    </style>
  </defs>
  <g id="shopping-list" transform="translate(-64)">
    <g id="Group_16" data-name="Group 16" transform="translate(69.691 17.068)">
      <g id="Group_15" data-name="Group 15">
        <path id="Path_6" data-name="Path 6" class="cls-1" d="M138.985,192.425a1.427,1.427,0,0,0-2.014,0l-4.682,4.685-1.838-1.84a1.422,1.422,0,0,0-2.011,2.011l2.845,2.845a1.408,1.408,0,0,0,1,.418,1.429,1.429,0,0,0,1.007-.415l5.689-5.689A1.423,1.423,0,0,0,138.985,192.425Z" transform="translate(-128.024 -192.008)"/>
      </g>
    </g>
    <g id="Group_18" data-name="Group 18" transform="translate(69.691 28.446)">
      <g id="Group_17" data-name="Group 17">
        <path id="Path_7" data-name="Path 7" class="cls-1" d="M138.985,320.425a1.427,1.427,0,0,0-2.014,0l-4.682,4.685-1.838-1.838a1.422,1.422,0,1,0-2.011,2.011l2.845,2.845a1.425,1.425,0,0,0,2.011,0l5.689-5.689A1.423,1.423,0,0,0,138.985,320.425Z" transform="translate(-128.024 -320.008)"/>
      </g>
    </g>
    <g id="Group_20" data-name="Group 20" transform="translate(83.912 19.912)">
      <g id="Group_19" data-name="Group 19">
        <path id="Path_8" data-name="Path 8" class="cls-1" d="M295.111,224h-5.689a1.422,1.422,0,0,0,0,2.845h5.689a1.422,1.422,0,0,0,0-2.845Z" transform="translate(-288 -224)"/>
      </g>
    </g>
    <g id="Group_22" data-name="Group 22" transform="translate(83.912 31.29)">
      <g id="Group_21" data-name="Group 21">
        <path id="Path_9" data-name="Path 9" class="cls-1" d="M295.111,352h-5.689a1.422,1.422,0,0,0,0,2.845h5.689a1.422,1.422,0,0,0,0-2.845Z" transform="translate(-288 -352)"/>
      </g>
    </g>
    <g id="Group_24" data-name="Group 24" transform="translate(64)">
      <g id="Group_23" data-name="Group 23">
        <path id="Path_10" data-name="Path 10" class="cls-1" d="M95.29,5.689H89.6V4.267a1.423,1.423,0,0,0-1.422-1.422H85.092a4.27,4.27,0,0,0-8.05,0H73.956a1.423,1.423,0,0,0-1.422,1.422V5.689H66.845A2.849,2.849,0,0,0,64,8.534V42.668a2.849,2.849,0,0,0,2.845,2.845H95.29a2.849,2.849,0,0,0,2.845-2.845V8.534A2.849,2.849,0,0,0,95.29,5.689Zm-19.912,0h2.845a1.423,1.423,0,0,0,1.422-1.422,1.422,1.422,0,1,1,2.845,0,1.423,1.423,0,0,0,1.422,1.422h2.845V8.534H75.378ZM95.29,42.668H66.845V8.534h5.689V9.956a1.423,1.423,0,0,0,1.422,1.422H88.178A1.423,1.423,0,0,0,89.6,9.956V8.534H95.29Z" transform="translate(-64)"/>
      </g>
    </g>
  </g>
</svg>
