<svg xmlns="http://www.w3.org/2000/svg" viewBox="0 0 44.019 33.5">
  <defs>
    <style>
      .cls-1 {
        fill: #fff;
      }
    </style>
  </defs>
  <g id="envelope" transform="translate(0 -57.75)">
    <g id="Group_29" data-name="Group 29" transform="translate(0 57.75)">
      <path id="Path_13" data-name="Path 13" class="cls-1" d="M38.646,57.75H5.383A5.388,5.388,0,0,0,0,63.133V85.867A5.388,5.388,0,0,0,5.383,91.25H38.636a5.388,5.388,0,0,0,5.383-5.383V63.142A5.382,5.382,0,0,0,38.646,57.75Zm2.924,28.117a2.927,2.927,0,0,1-2.924,2.924H5.383a2.927,2.927,0,0,1-2.924-2.924V63.142a2.927,2.927,0,0,1,2.924-2.924H38.636a2.927,2.927,0,0,1,2.924,2.924V85.867Z" transform="translate(0 -57.75)"/>
      <path id="Path_14" data-name="Path 14" class="cls-1" d="M78.436,120.711,89.2,111.056a1.232,1.232,0,0,0-1.649-1.831L72.707,122.551l-2.9-2.587c-.009-.009-.018-.018-.018-.027a1.823,1.823,0,0,0-.2-.173L57.806,109.216a1.232,1.232,0,1,0-1.639,1.84l10.893,9.737L56.212,130.948a1.235,1.235,0,0,0-.055,1.74,1.258,1.258,0,0,0,.9.392,1.232,1.232,0,0,0,.838-.328l11.012-10.3,2.987,2.669a1.226,1.226,0,0,0,1.639-.009l3.069-2.751,10.948,10.4a1.233,1.233,0,0,0,1.74-.046,1.235,1.235,0,0,0-.046-1.74Z" transform="translate(-50.674 -104.243)"/>
    </g>
  </g>
</svg>
