<svg xmlns="http://www.w3.org/2000/svg" viewBox="0 0 50.818 45.3">
  <defs>
    <style>
      .cls-1 {
        fill: #fff;
      }
    </style>
  </defs>
  <g id="home_1_" data-name="home (1)" transform="translate(0.001 -27.797)">
    <g id="Group_26" data-name="Group 26" transform="translate(-0.001 27.798)">
      <g id="Group_25" data-name="Group 25">
        <path id="Path_11" data-name="Path 11" class="cls-1" d="M50.277,45.69,26.188,28.053a1.32,1.32,0,0,0-1.56,0L.54,45.69A1.32,1.32,0,1,0,2.1,47.82L25.408,30.754,48.717,47.82a1.32,1.32,0,0,0,1.56-2.131Z" transform="translate(0.001 -27.798)"/>
      </g>
    </g>
    <g id="Group_28" data-name="Group 28" transform="translate(5.603 48.119)">
      <g id="Group_27" data-name="Group 27" transform="translate(0 0)">
        <path id="Path_12" data-name="Path 12" class="cls-1" d="M94.743,232.543a1.32,1.32,0,0,0-1.32,1.32V254.88H82.86V243.408a6.6,6.6,0,1,0-13.2,0V254.88H59.093V233.863a1.32,1.32,0,1,0-2.641,0V256.2a1.32,1.32,0,0,0,1.32,1.32h13.2a1.32,1.32,0,0,0,1.315-1.218,1,1,0,0,0,.005-.1V243.408a3.962,3.962,0,1,1,7.923,0V256.2a.967.967,0,0,0,.005.1,1.32,1.32,0,0,0,1.315,1.219h13.2a1.32,1.32,0,0,0,1.32-1.32V233.863A1.321,1.321,0,0,0,94.743,232.543Z" transform="translate(-56.452 -232.543)"/>
      </g>
    </g>
  </g>
</svg>
