<svg xmlns="http://www.w3.org/2000/svg" viewBox="0 0 50.083 45.446">
  <defs>
    <style>
      .cls-1 {
        fill: #fff;
      }
    </style>
  </defs>
  <g id="history" transform="translate(0 -3.315)">
    <g id="Group_14" data-name="Group 14" transform="translate(0 3.315)">
      <path id="Path_4" data-name="Path 4" class="cls-1" d="M27.358,3.315A22.733,22.733,0,0,0,4.636,25.973a26.3,26.3,0,0,0,.816,7.052L2.391,31.241a1.59,1.59,0,1,0-1.6,2.746l7.173,4.182c.015.008.03.01.044.017a1.571,1.571,0,0,0,.237.1,1.7,1.7,0,0,0,.166.054,1.643,1.643,0,0,0,.207.026c.049,0,.1.02.147.02.028,0,.054-.009.082-.011s.05.006.077,0,.075-.021.114-.027a1.631,1.631,0,0,0,.222-.054,1.558,1.558,0,0,0,.181-.073,1.5,1.5,0,0,0,.19-.107,1.452,1.452,0,0,0,.315-.272,1.453,1.453,0,0,0,.125-.162c.021-.032.05-.054.069-.087s.014-.053.026-.077c.021-.043.054-.081.073-.128l2.853-7.065a1.589,1.589,0,1,0-2.947-1.191L8.68,32.762a23.551,23.551,0,0,1-.864-6.724A19.543,19.543,0,1,1,27.359,45.581a1.59,1.59,0,0,0,0,3.18,22.723,22.723,0,1,0,0-45.446Z" transform="translate(0 -3.315)"/>
      <path id="Path_5" data-name="Path 5" class="cls-1" d="M31.182,32.523a1.574,1.574,0,0,0,.5.1c.035,0,.07.021.106.021a1.574,1.574,0,0,0,.539-.106,1.4,1.4,0,0,0,.14-.065,1.589,1.589,0,0,0,.365-.242c.024-.021.057-.029.081-.054l9.927-9.927A1.59,1.59,0,1,0,40.592,20l-9.174,9.173-8.233-3.448a1.59,1.59,0,0,0-1.23,2.933l9.218,3.86.009,0Z" transform="translate(-4.433 -6.743)"/>
    </g>
  </g>
</svg>
