<svg xmlns="http://www.w3.org/2000/svg" viewBox="0 0 34.128 40.123">
  <defs>
    <style>
      .cls-1 {
        fill: #fff;
      }
    </style>
  </defs>
  <g id="Group_31" data-name="Group 31" transform="translate(0.027)">
    <g id="Group_30" data-name="Group 30" transform="translate(-0.027)">
      <path id="Path_15" data-name="Path 15" class="cls-1" d="M109.508,21.619h.266a7.667,7.667,0,0,0,5.858-2.534c3.2-3.606,2.667-9.788,2.609-10.378-.208-4.429-2.3-6.547-4.03-7.536A9.238,9.238,0,0,0,109.741,0H109.6a9.252,9.252,0,0,0-4.47,1.138c-1.745.989-3.872,3.107-4.08,7.569-.058.59-.59,6.772,2.609,10.378A7.636,7.636,0,0,0,109.508,21.619Zm-6.24-12.7c0-.025.008-.05.008-.066.274-5.957,4.5-6.6,6.315-6.6h.1c2.243.05,6.057.964,6.315,6.6a.162.162,0,0,0,.008.066c.008.058.59,5.708-2.052,8.683a5.446,5.446,0,0,1-4.279,1.778H109.6a5.428,5.428,0,0,1-4.271-1.778C102.695,14.64,103.26,8.965,103.268,8.915Z" transform="translate(-92.589)"/>
      <path id="Path_16" data-name="Path 16" class="cls-1" d="M34.1,269.576v-.025c0-.066-.008-.133-.008-.208-.05-1.645-.158-5.492-3.764-6.722l-.083-.025a23.975,23.975,0,0,1-6.9-3.141,1.121,1.121,0,1,0-1.288,1.836,25.88,25.88,0,0,0,7.586,3.465c1.936.69,2.152,2.758,2.21,4.653,0,.075.008.208.008.208a24.257,24.257,0,0,1-.174,2.567,30.578,30.578,0,0,1-14.648,3.407,30.754,30.754,0,0,1-14.656-3.415,14.278,14.278,0,0,1-.174-2.567c0-.066.008-.133.008-.208.058-1.894.274-3.963,2.21-4.653a26.119,26.119,0,0,0,7.586-3.465,1.121,1.121,0,1,0-1.288-1.836,23.712,23.712,0,0,1-6.9,3.141c-.033.008-.058.017-.083.025C.141,263.852.033,267.7-.017,269.336a1.669,1.669,0,0,1-.008.208v.025A12.741,12.741,0,0,0,.4,273.332a1.066,1.066,0,0,0,.432.523c.249.166,6.223,3.972,16.219,3.972s15.969-3.814,16.219-3.972a1.112,1.112,0,0,0,.432-.523A13.368,13.368,0,0,0,34.1,269.576Z" transform="translate(0.027 -237.704)"/>
    </g>
  </g>
</svg>
